# xmcd
#
# Track frame offsets: 
#        150
#        12740
#        25892
#        37257
#        48179
#        65231
#        75374
#        90193
#        103821
#        118644
#        130009
#        145309
#        157845
#        172776
#        184479
#        197516
#        214234
#        230614
#        243093
#        255572
#        265157
#        276303
#        287222
#        296696
#
# Disc length: 4099 seconds
#
# Revision: 0
# Processed by: cddbd v1.5.2PL0 Copyright (c) Steve Scherf et al.
# Submitted via: ExactAudioCopyFreeDBPlugin 1.0
#
DISCID=5d100118
DTITLE=Scarlxrd - Immxrtalisatixn
DYEAR=2019
DGENRE=No, thanks.
TTITLE0=XMG
TTITLE1=Up.Up.Up.
TTITLE2=Mxnday Mxrning
TTITLE3=Gxing The Distance
TTITLE4=Ask
TTITLE5=7
TTITLE6=Nike Face
TTITLE7=Winning
TTITLE8=Nx Lxve
TTITLE9=Beastmxde
TTITLE10=Kill Cxnfirmed
TTITLE11=Stealth
TTITLE12=Gxld
TTITLE13=Prxblematic
TTITLE14=Egx Death!
TTITLE15=Lxwkey
TTITLE16=Prxsper
TTITLE17=I Want 1 Millixn Pxunds
TTITLE18=Nxt My Business
TTITLE19=Backwards
TTITLE20=Ruthless
TTITLE21=Hxuse Xf Lxrds
TTITLE22=I Dxnt Need Tx Knxw
TTITLE23=Search and Destrxy
EXTD=
EXTT0=
EXTT1=
EXTT2=
EXTT3=
EXTT4=
EXTT5=
EXTT6=
EXTT7=
EXTT8=
EXTT9=
EXTT10=
EXTT11=
EXTT12=
EXTT13=
EXTT14=
EXTT15=
EXTT16=
EXTT17=
EXTT18=
EXTT19=
EXTT20=
EXTT21=
EXTT22=
EXTT23=
PLAYORDER=
